<mxfile host="app.diagrams.net" modified="2023-08-29T14:30:36.047Z" agent="Mozilla/5.0 (Windows NT 10.0; Win64; x64) AppleWebKit/537.36 (KHTML, like Gecko) Chrome/116.0.0.0 Safari/537.36" etag="g6lbuE9C_mi0Vy8GLWv9" version="21.6.9" type="github">
  <diagram id="C5RBs43oDa-KdzZeNtuy" name="Page-1">
    <mxGraphModel dx="1434" dy="792" grid="1" gridSize="10" guides="1" tooltips="1" connect="1" arrows="1" fold="1" page="1" pageScale="1" pageWidth="827" pageHeight="1169" math="0" shadow="0">
      <root>
        <mxCell id="WIyWlLk6GJQsqaUBKTNV-0" />
        <mxCell id="WIyWlLk6GJQsqaUBKTNV-1" parent="WIyWlLk6GJQsqaUBKTNV-0" />
        <mxCell id="SPGaAKHdo6wMfNcyxkbD-30" value="&lt;b&gt;Class: - Mesh&lt;/b&gt;" style="rounded=0;whiteSpace=wrap;html=1;" parent="WIyWlLk6GJQsqaUBKTNV-1" vertex="1">
          <mxGeometry x="102" y="58" width="600" height="40" as="geometry" />
        </mxCell>
        <mxCell id="SPGaAKHdo6wMfNcyxkbD-31" value="&lt;div style=&quot;&quot;&gt;Attributes: -&amp;nbsp;&lt;/div&gt;&lt;div style=&quot;&quot;&gt;&lt;span style=&quot;background-color: initial;&quot;&gt;&amp;nbsp;&lt;span style=&quot;white-space: pre;&quot;&gt;&#x9;&lt;/span&gt;&lt;span style=&quot;white-space: pre;&quot;&gt;&#x9;&lt;/span&gt;&lt;span style=&quot;white-space: pre;&quot;&gt;&#x9;&lt;/span&gt;&lt;b&gt;&lt;u&gt;self.nl&lt;/u&gt;&lt;/b&gt; = self.mesh_list()&lt;/span&gt;&lt;/div&gt;&lt;div style=&quot;&quot;&gt;&lt;span style=&quot;background-color: initial;&quot;&gt;&lt;span style=&quot;white-space: pre;&quot;&gt;&#x9;&lt;/span&gt;&lt;span style=&quot;white-space: pre;&quot;&gt;&#x9;&lt;/span&gt;&lt;span style=&quot;white-space: pre;&quot;&gt;&#x9;&lt;/span&gt;&lt;b&gt;&lt;u&gt;self.phi&lt;/u&gt; &lt;/b&gt;(stores the shape function)&lt;br&gt;&lt;/span&gt;&lt;/div&gt;&lt;div style=&quot;&quot;&gt;&lt;span style=&quot;background-color: initial;&quot;&gt;&lt;span style=&quot;white-space: pre;&quot;&gt;&#x9;&lt;/span&gt;&lt;span style=&quot;white-space: pre;&quot;&gt;&#x9;&lt;/span&gt;&lt;span style=&quot;white-space: pre;&quot;&gt;&#x9;&lt;/span&gt;&lt;b&gt;&lt;u&gt;self.dphi&lt;/u&gt;&lt;/b&gt; (stores derivative of phi)&lt;br&gt;&lt;/span&gt;&lt;/div&gt;&lt;div style=&quot;&quot;&gt;&lt;span style=&quot;background-color: initial;&quot;&gt;&lt;span style=&quot;white-space: pre;&quot;&gt;&#x9;&lt;/span&gt;&lt;span style=&quot;white-space: pre;&quot;&gt;&#x9;&lt;/span&gt;&lt;span style=&quot;white-space: pre;&quot;&gt;&#x9;&lt;/span&gt;&lt;b&gt;self.J&lt;/b&gt; (stores Jacobian)&lt;br&gt;&lt;/span&gt;&lt;/div&gt;&lt;div style=&quot;&quot;&gt;&lt;span style=&quot;background-color: initial;&quot;&gt;&lt;span style=&quot;white-space: pre;&quot;&gt;&#x9;&lt;/span&gt;&lt;span style=&quot;white-space: pre;&quot;&gt;&#x9;&lt;/span&gt;&lt;span style=&quot;white-space: pre;&quot;&gt;&#x9;&lt;/span&gt;&lt;b&gt;self.run_count&lt;/b&gt;&amp;nbsp;&lt;br&gt;&lt;/span&gt;&lt;/div&gt;" style="rounded=0;whiteSpace=wrap;html=1;align=left;" parent="WIyWlLk6GJQsqaUBKTNV-1" vertex="1">
          <mxGeometry x="102" y="98" width="280" height="100" as="geometry" />
        </mxCell>
        <mxCell id="SPGaAKHdo6wMfNcyxkbD-32" value="Methods to modify the Attributes: -&lt;br&gt;self.mesh_list&lt;br&gt;self.update_phi&lt;br&gt;self.update_Jacobian&lt;br&gt;&lt;br&gt;." style="rounded=0;whiteSpace=wrap;html=1;align=left;" parent="WIyWlLk6GJQsqaUBKTNV-1" vertex="1">
          <mxGeometry x="382" y="98" width="320" height="100" as="geometry" />
        </mxCell>
        <mxCell id="SPGaAKHdo6wMfNcyxkbD-33" value="" style="rounded=0;whiteSpace=wrap;html=1;" parent="WIyWlLk6GJQsqaUBKTNV-1" vertex="1">
          <mxGeometry x="102" y="198" width="600" height="340" as="geometry" />
        </mxCell>
        <mxCell id="SPGaAKHdo6wMfNcyxkbD-51" style="edgeStyle=orthogonalEdgeStyle;rounded=0;orthogonalLoop=1;jettySize=auto;html=1;exitX=0.5;exitY=1;exitDx=0;exitDy=0;entryX=0.5;entryY=0;entryDx=0;entryDy=0;" parent="WIyWlLk6GJQsqaUBKTNV-1" source="SPGaAKHdo6wMfNcyxkbD-52" target="SPGaAKHdo6wMfNcyxkbD-55" edge="1">
          <mxGeometry relative="1" as="geometry" />
        </mxCell>
        <mxCell id="SPGaAKHdo6wMfNcyxkbD-52" value="Start" style="rounded=1;whiteSpace=wrap;html=1;fontSize=12;glass=0;strokeWidth=1;shadow=0;arcSize=50;" parent="WIyWlLk6GJQsqaUBKTNV-1" vertex="1">
          <mxGeometry x="340.97" y="208" width="84" height="10" as="geometry" />
        </mxCell>
        <mxCell id="SPGaAKHdo6wMfNcyxkbD-53" value="Stop" style="rounded=1;whiteSpace=wrap;html=1;fontSize=12;glass=0;strokeWidth=1;shadow=0;arcSize=50;" parent="WIyWlLk6GJQsqaUBKTNV-1" vertex="1">
          <mxGeometry x="353.97" y="507" width="60" height="20" as="geometry" />
        </mxCell>
        <mxCell id="SPGaAKHdo6wMfNcyxkbD-54" style="edgeStyle=orthogonalEdgeStyle;rounded=0;orthogonalLoop=1;jettySize=auto;html=1;exitX=0.5;exitY=1;exitDx=0;exitDy=0;entryX=0.5;entryY=0;entryDx=0;entryDy=0;" parent="WIyWlLk6GJQsqaUBKTNV-1" source="SPGaAKHdo6wMfNcyxkbD-55" target="SPGaAKHdo6wMfNcyxkbD-57" edge="1">
          <mxGeometry relative="1" as="geometry" />
        </mxCell>
        <mxCell id="SPGaAKHdo6wMfNcyxkbD-55" value="create an empty list &lt;b&gt;l&lt;/b&gt;" style="rounded=1;whiteSpace=wrap;html=1;" parent="WIyWlLk6GJQsqaUBKTNV-1" vertex="1">
          <mxGeometry x="302.97" y="237" width="160" height="20" as="geometry" />
        </mxCell>
        <mxCell id="SPGaAKHdo6wMfNcyxkbD-56" style="edgeStyle=orthogonalEdgeStyle;rounded=0;orthogonalLoop=1;jettySize=auto;html=1;exitX=0.5;exitY=1;exitDx=0;exitDy=0;entryX=0.5;entryY=0;entryDx=0;entryDy=0;" parent="WIyWlLk6GJQsqaUBKTNV-1" source="SPGaAKHdo6wMfNcyxkbD-57" target="SPGaAKHdo6wMfNcyxkbD-59" edge="1">
          <mxGeometry relative="1" as="geometry" />
        </mxCell>
        <mxCell id="SPGaAKHdo6wMfNcyxkbD-57" value="for q &amp;lt; ip.n (number of nodes)" style="shape=hexagon;perimeter=hexagonPerimeter2;whiteSpace=wrap;html=1;fixedSize=1;" parent="WIyWlLk6GJQsqaUBKTNV-1" vertex="1">
          <mxGeometry x="232.97000000000003" y="287" width="300" height="20" as="geometry" />
        </mxCell>
        <mxCell id="SPGaAKHdo6wMfNcyxkbD-58" style="edgeStyle=orthogonalEdgeStyle;rounded=0;orthogonalLoop=1;jettySize=auto;html=1;exitX=0.5;exitY=1;exitDx=0;exitDy=0;entryX=0.5;entryY=0;entryDx=0;entryDy=0;" parent="WIyWlLk6GJQsqaUBKTNV-1" source="SPGaAKHdo6wMfNcyxkbD-59" target="SPGaAKHdo6wMfNcyxkbD-64" edge="1">
          <mxGeometry relative="1" as="geometry" />
        </mxCell>
        <mxCell id="SPGaAKHdo6wMfNcyxkbD-59" value="l.append(q*ip.length/(ip.n-1))" style="rounded=1;whiteSpace=wrap;html=1;" parent="WIyWlLk6GJQsqaUBKTNV-1" vertex="1">
          <mxGeometry x="227.97000000000003" y="331" width="310" height="20" as="geometry" />
        </mxCell>
        <mxCell id="SPGaAKHdo6wMfNcyxkbD-60" value="" style="edgeStyle=orthogonalEdgeStyle;rounded=0;orthogonalLoop=1;jettySize=auto;html=1;" parent="WIyWlLk6GJQsqaUBKTNV-1" source="SPGaAKHdo6wMfNcyxkbD-64" target="SPGaAKHdo6wMfNcyxkbD-66" edge="1">
          <mxGeometry relative="1" as="geometry" />
        </mxCell>
        <mxCell id="SPGaAKHdo6wMfNcyxkbD-61" value="Yes" style="edgeLabel;html=1;align=center;verticalAlign=middle;resizable=0;points=[];" parent="SPGaAKHdo6wMfNcyxkbD-60" vertex="1" connectable="0">
          <mxGeometry x="-0.2314" y="2" relative="1" as="geometry">
            <mxPoint as="offset" />
          </mxGeometry>
        </mxCell>
        <mxCell id="SPGaAKHdo6wMfNcyxkbD-62" style="edgeStyle=orthogonalEdgeStyle;rounded=0;orthogonalLoop=1;jettySize=auto;html=1;exitX=0.5;exitY=1;exitDx=0;exitDy=0;entryX=0.5;entryY=0;entryDx=0;entryDy=0;" parent="WIyWlLk6GJQsqaUBKTNV-1" source="SPGaAKHdo6wMfNcyxkbD-64" target="SPGaAKHdo6wMfNcyxkbD-53" edge="1">
          <mxGeometry relative="1" as="geometry" />
        </mxCell>
        <mxCell id="SPGaAKHdo6wMfNcyxkbD-63" value="No" style="edgeLabel;html=1;align=center;verticalAlign=middle;resizable=0;points=[];" parent="SPGaAKHdo6wMfNcyxkbD-62" vertex="1" connectable="0">
          <mxGeometry x="-0.2499" y="1" relative="1" as="geometry">
            <mxPoint as="offset" />
          </mxGeometry>
        </mxCell>
        <mxCell id="SPGaAKHdo6wMfNcyxkbD-64" value="if &lt;br&gt;l[-1] != simulation length or len(l) = 0" style="rhombus;whiteSpace=wrap;html=1;" parent="WIyWlLk6GJQsqaUBKTNV-1" vertex="1">
          <mxGeometry x="312.97" y="377" width="140" height="70" as="geometry" />
        </mxCell>
        <mxCell id="SPGaAKHdo6wMfNcyxkbD-65" style="edgeStyle=orthogonalEdgeStyle;rounded=0;orthogonalLoop=1;jettySize=auto;html=1;exitX=0.5;exitY=1;exitDx=0;exitDy=0;entryX=1;entryY=0.5;entryDx=0;entryDy=0;" parent="WIyWlLk6GJQsqaUBKTNV-1" source="SPGaAKHdo6wMfNcyxkbD-66" target="SPGaAKHdo6wMfNcyxkbD-53" edge="1">
          <mxGeometry relative="1" as="geometry" />
        </mxCell>
        <mxCell id="SPGaAKHdo6wMfNcyxkbD-66" value="Print(Error)" style="rounded=1;whiteSpace=wrap;html=1;" parent="WIyWlLk6GJQsqaUBKTNV-1" vertex="1">
          <mxGeometry x="462.97" y="467" width="60" height="12.5" as="geometry" />
        </mxCell>
        <mxCell id="SPGaAKHdo6wMfNcyxkbD-67" style="edgeStyle=orthogonalEdgeStyle;rounded=0;orthogonalLoop=1;jettySize=auto;html=1;exitX=0;exitY=0.5;exitDx=0;exitDy=0;entryX=1;entryY=0.5;entryDx=0;entryDy=0;" parent="WIyWlLk6GJQsqaUBKTNV-1" source="SPGaAKHdo6wMfNcyxkbD-57" target="SPGaAKHdo6wMfNcyxkbD-57" edge="1">
          <mxGeometry relative="1" as="geometry">
            <Array as="points">
              <mxPoint x="212.97000000000003" y="297" />
              <mxPoint x="212.97000000000003" y="367" />
              <mxPoint x="552.97" y="367" />
              <mxPoint x="552.97" y="297" />
            </Array>
          </mxGeometry>
        </mxCell>
      </root>
    </mxGraphModel>
  </diagram>
</mxfile>
